<svg xmlns="http://www.w3.org/2000/svg" version="1.1" xmlns:xlink="http://www.w3.org/1999/xlink" xmlns:svgjs="http://svgjs.com/svgjs" width="708" height="724"><svg width="708" height="724" viewBox="0 0 708 724" fill="none" xmlns="http://www.w3.org/2000/svg">
<path d="M393.598 101.409C468.017 88.4796 508.53 174.104 529.793 212.031C554.79 255.993 589.844 455.974 589.844 455.974C589.844 455.974 515.426 262.027 419.746 132.441C323.777 2.85537 232.119 63.1945 232.119 63.1945" stroke="black" stroke-width="30" stroke-miterlimit="10"></path>
<path d="M372.91 694.745C424.916 720.605 481.233 708.25 523.183 656.818C565.134 605.386 589.843 456.261 589.843 456.261" stroke="black" stroke-width="30" stroke-miterlimit="10"></path>
<path d="M589.846 455.975C589.846 455.975 35.0132 127.844 17.7734 73.5389C0.533608 19.2335 111.73 -18.1194 232.121 63.195C352.512 144.509 589.846 455.975 589.846 455.975Z" stroke="black" stroke-width="30" stroke-miterlimit="10"></path>
<path d="M589.844 455.976C589.844 455.976 244.186 627.511 244.186 671.76C244.186 716.009 340.442 723.48 411.125 673.772C481.808 624.063 589.844 455.976 589.844 455.976Z" stroke="black" stroke-width="30" stroke-miterlimit="10"></path>
<path d="M598.468 457.117L645.303 509.124C645.303 509.124 693 497.918 693 457.98C693 418.041 646.452 402.812 646.452 402.812L598.756 457.117H598.468Z" stroke="black" stroke-width="30" stroke-miterlimit="10"></path>
</svg><style>@media (prefers-color-scheme: light) { :root { filter: none; } }
@media (prefers-color-scheme: dark) { :root { filter: invert(100%); } }
</style></svg>